<svg width="400" height="500" version="1.1"
    xmlns="http://www.w3.org/2000/svg">
      <rect x="190" y="470" width="20" height="30" fill="#8B4513" />
  <rect x="199" y="230.0" width="2" height="240.0" fill="#8B4513" opacity="0">
      
      <animate attributeName="height" from="0" to="240.0" begin="0s" dur="1s" fill="freeze" />
      <animate attributeName="y" from="470" to="230.0" begin="0s" dur="1s" fill="freeze" />
      
    </rect>
  <polygon points="20.0,450.0 380.0,450.0 200,442.0" fill="green" opacity="0">
      
        <animate attributeName="opacity" from="0" to="1" begin="1.0s" dur="0.5s" fill="freeze" />
        
    </polygon>
  <polygon points="31.428571428571416,434.0 368.57142857142856,434.0 200,426.0" fill="green" opacity="0">
      
        <animate attributeName="opacity" from="0" to="1" begin="1.1s" dur="0.5s" fill="freeze" />
        
    </polygon>
  <polygon points="42.85714285714286,418.0 357.1428571428571,418.0 200,410.0" fill="green" opacity="0">
      
        <animate attributeName="opacity" from="0" to="1" begin="1.2s" dur="0.5s" fill="freeze" />
        
    </polygon>
  <polygon points="54.28571428571428,402.0 345.7142857142857,402.0 200,394.0" fill="green" opacity="0">
      
        <animate attributeName="opacity" from="0" to="1" begin="1.3s" dur="0.5s" fill="freeze" />
        
    </polygon>
  <polygon points="65.71428571428572,386.0 334.2857142857143,386.0 200,378.0" fill="green" opacity="0">
      
        <animate attributeName="opacity" from="0" to="1" begin="1.4s" dur="0.5s" fill="freeze" />
        
    </polygon>
  <polygon points="77.14285714285714,370.0 322.8571428571429,370.0 200,362.0" fill="green" opacity="0">
      
        <animate attributeName="opacity" from="0" to="1" begin="1.5s" dur="0.5s" fill="freeze" />
        
    </polygon>
  <polygon points="88.57142857142857,354.0 311.42857142857144,354.0 200,346.0" fill="green" opacity="0">
      
        <animate attributeName="opacity" from="0" to="1" begin="1.6s" dur="0.5s" fill="freeze" />
        
    </polygon>
  <polygon points="100.0,338.0 300.0,338.0 200,330.0" fill="green" opacity="0">
      
        <animate attributeName="opacity" from="0" to="1" begin="1.7000000000000002s" dur="0.5s" fill="freeze" />
        
    </polygon>
  <polygon points="111.42857142857143,322.0 288.57142857142856,322.0 200,314.0" fill="green" opacity="0">
      
        <animate attributeName="opacity" from="0" to="1" begin="1.8s" dur="0.5s" fill="freeze" />
        
    </polygon>
  <polygon points="122.85714285714286,306.0 277.1428571428571,306.0 200,298.0" fill="green" opacity="0">
      
        <animate attributeName="opacity" from="0" to="1" begin="1.9s" dur="0.5s" fill="freeze" />
        
    </polygon>
</svg>