<svg width="400" height="500" version="1.1"
    xmlns="http://www.w3.org/2000/svg">
      <rect x="190" y="470" width="20" height="30" fill="#8B4513" />
  <rect x="199" y="86" width="2" height="384" fill="#8B4513" >
      
    </rect>
  <polygon points="20.0,450.0 380.0,450.0 200,437.2" fill="green" >
      
    </polygon>
  <polygon points="31.428571428571416,424.4 368.57142857142856,424.4 200,411.59999999999997" fill="green" >
      
    </polygon>
  <polygon points="42.85714285714286,398.8 357.1428571428571,398.8 200,386.0" fill="green" >
      
    </polygon>
  <polygon points="54.28571428571428,373.2 345.7142857142857,373.2 200,360.4" fill="green" >
      
    </polygon>
  <polygon points="65.71428571428572,347.6 334.2857142857143,347.6 200,334.8" fill="green" >
      
    </polygon>
  <polygon points="77.14285714285714,322.0 322.8571428571429,322.0 200,309.2" fill="green" >
      
    </polygon>
  <polygon points="88.57142857142857,296.4 311.42857142857144,296.4 200,283.59999999999997" fill="green" >
      
    </polygon>
  <polygon points="100.0,270.79999999999995 300.0,270.79999999999995 200,257.99999999999994" fill="green" >
      
    </polygon>
  <polygon points="111.42857142857143,245.2 288.57142857142856,245.2 200,232.39999999999998" fill="green" >
      
    </polygon>
  <polygon points="122.85714285714286,219.6 277.1428571428571,219.6 200,206.79999999999998" fill="green" >
      
    </polygon>
  <polygon points="134.28571428571428,194.0 265.7142857142857,194.0 200,181.2" fill="green" >
      
    </polygon>
  <polygon points="145.71428571428572,168.39999999999998 254.28571428571428,168.39999999999998 200,155.59999999999997" fill="green" >
      
    </polygon>
  <polygon points="157.14285714285714,142.79999999999995 242.85714285714286,142.79999999999995 200,129.99999999999994" fill="green" >
      
    </polygon>
  <polygon points="168.57142857142858,117.19999999999999 231.42857142857142,117.19999999999999 200,104.39999999999999" fill="green" >
      
    </polygon>
  <polygon points="180.0,91.59999999999997 220.0,91.59999999999997 200,78.79999999999997" fill="green" >
      
    </polygon>
  <g>
      <polygon points="302.74177817980086,195.7679384624736 305.10406183370634,200.55444794921954 310.38628866597554,201.32200043646247 306.5640334228882,205.0477784739882 307.4663454876118,210.30866148599978 302.74177817980086,207.8248094609826 298.0172108719899,210.30866148599978 298.9195229367135,205.0477784739882 295.0972676936262,201.32200043646247 300.3794945258954,200.55444794921954" fill="green" />

      <animate attributeName="opacity" values="1;0;1" dur="0.87251077481735s" repeatCount="indefinite" />
    </g>
  <g>
      <polygon points="47.17914954541473,224.0704795663142 49.00437776762668,227.76879589113415 53.08571214694368,228.36184849065097 50.132430846179204,231.2405862800551 50.829605989838626,235.30542926849293 47.17914954541473,233.3862707422235 43.528693100990836,235.30542926849293 44.22586824465026,231.2405862800551 41.272586943885784,228.36184849065097 45.35392132320278,227.76879589113415" fill="silver" />

      <animate attributeName="opacity" values="1;0;1" dur="1.0519397968995496s" repeatCount="indefinite" />
    </g>
  <g>
      <circle cx="172.2334751814193" cy="387.9170651547768" r="3.3292558297243326" fill="silver" />

      <animate attributeName="opacity" values="1;0;1" dur="1.2681042274383514s" repeatCount="indefinite" />
    </g>
  <g>
      <circle cx="74.92843705772131" cy="288.0566694811488" r="4.71974772138888" fill="blue" />

      <animate attributeName="opacity" values="1;0;1" dur="0.8617945495811076s" repeatCount="indefinite" />
    </g>
  <g>
      <circle cx="339.3675056934352" cy="110.12229719876443" r="2.638423477543386" fill="green" />

      <animate attributeName="opacity" values="1;0;1" dur="1.4878004129933304s" repeatCount="indefinite" />
    </g>
  <g>
      <circle cx="59.61422346785175" cy="262.45470681585357" r="1.7420117319215693" fill="green" />

      <animate attributeName="opacity" values="1;0;1" dur="1.247321847935849s" repeatCount="indefinite" />
    </g>
  <g>
      <circle cx="26.47703379850606" cy="160.45668623011392" r="3.519434192718415" fill="red" />

      <animate attributeName="opacity" values="1;0;1" dur="0.875809395363274s" repeatCount="indefinite" />
    </g>
  <g>
      <polygon points="84.0839234119017,299.4280717631926 85.61538551709828,302.53115292069725 89.03983888928278,303.0287551227099 86.56188115059223,305.44416694990986 87.14684762229486,308.85478318113513 84.0839234119017,307.24450862966853 81.02099920150853,308.85478318113513 81.60596567321116,305.44416694990986 79.12800793452061,303.0287551227099 82.55246130670511,302.53115292069725" fill="blue" />

      <animate attributeName="opacity" values="1;0;1" dur="0.9391586050339773s" repeatCount="indefinite" />
    </g>
  <g>
      <polygon points="352.35461339003973,421.0879561956299 354.9391773357976,426.32485474717294 360.7184380107072,427.1646304793231 356.53652570037343,431.2409875119619 357.5237412815554,436.9968960089011 352.35461339003973,434.27932465380854 347.1854854985241,436.9968960089011 348.17270107970603,431.2409875119619 343.9907887693723,427.1646304793231 349.7700494442819,426.32485474717294" fill="silver" />

      <animate attributeName="opacity" values="1;0;1" dur="1.4980003918657139s" repeatCount="indefinite" />
    </g>
  <g>
      <circle cx="326.05664388679844" cy="269.96716003417464" r="3.0316852837220685" fill="blue" />

      <animate attributeName="opacity" values="1;0;1" dur="0.9629972701127865s" repeatCount="indefinite" />
    </g>
</svg>