<svg width="400" height="500" version="1.1"
    xmlns="http://www.w3.org/2000/svg">
      <rect x="190" y="470" width="20" height="30" fill="#8B4513" />
  <rect x="199" y="86" width="2" height="384" fill="#8B4513" >
      
    </rect>
  <polygon points="20.0,450.0 380.0,450.0 200,437.2" fill="green" >
      
    </polygon>
  <polygon points="31.428571428571416,424.4 368.57142857142856,424.4 200,411.59999999999997" fill="green" >
      
    </polygon>
  <polygon points="42.85714285714286,398.8 357.1428571428571,398.8 200,386.0" fill="green" >
      
    </polygon>
  <polygon points="54.28571428571428,373.2 345.7142857142857,373.2 200,360.4" fill="green" >
      
    </polygon>
  <polygon points="65.71428571428572,347.6 334.2857142857143,347.6 200,334.8" fill="green" >
      
    </polygon>
  <polygon points="77.14285714285714,322.0 322.8571428571429,322.0 200,309.2" fill="green" >
      
    </polygon>
  <polygon points="88.57142857142857,296.4 311.42857142857144,296.4 200,283.59999999999997" fill="green" >
      
    </polygon>
  <polygon points="100.0,270.79999999999995 300.0,270.79999999999995 200,257.99999999999994" fill="green" >
      
    </polygon>
  <polygon points="111.42857142857143,245.2 288.57142857142856,245.2 200,232.39999999999998" fill="green" >
      
    </polygon>
  <polygon points="122.85714285714286,219.6 277.1428571428571,219.6 200,206.79999999999998" fill="green" >
      
    </polygon>
  <polygon points="134.28571428571428,194.0 265.7142857142857,194.0 200,181.2" fill="green" >
      
    </polygon>
  <polygon points="145.71428571428572,168.39999999999998 254.28571428571428,168.39999999999998 200,155.59999999999997" fill="green" >
      
    </polygon>
  <polygon points="157.14285714285714,142.79999999999995 242.85714285714286,142.79999999999995 200,129.99999999999994" fill="green" >
      
    </polygon>
  <polygon points="168.57142857142858,117.19999999999999 231.42857142857142,117.19999999999999 200,104.39999999999999" fill="green" >
      
    </polygon>
  <polygon points="180.0,91.59999999999997 220.0,91.59999999999997 200,78.79999999999997" fill="green" >
      
    </polygon>
  <g>
      <path d="M237.92296625788043,434.2426800644629 c-3.5612076321277573,0 -3.5612076321277573,7.1224152642555145 0,7.1224152642555145 c3.5612076321277573,0 3.5612076321277573,-7.1224152642555145 0,-7.1224152642555145 z" fill="blue" />

      <animate attributeName="opacity" values="1;0;1" dur="1.3807349980292385s" repeatCount="indefinite" />
    </g>
  <g>
      <circle cx="129.6286502110952" cy="112.94438039189917" r="2.621850639551401" fill="silver" />

      <animate attributeName="opacity" values="1;0;1" dur="0.6767571219210711s" repeatCount="indefinite" />
    </g>
  <g>
      <circle cx="256.679124516624" cy="426.9898740305029" r="3.209727177468996" fill="green" />

      <animate attributeName="opacity" values="1;0;1" dur="0.9917899965737791s" repeatCount="indefinite" />
    </g>
  <g>
      <circle cx="30.52697031070176" cy="442.7819680252522" r="3.026481553506431" fill="silver" />

      <animate attributeName="opacity" values="1;0;1" dur="1.4389268832301574s" repeatCount="indefinite" />
    </g>
  <g>
      <polygon points="115.96189163222977,189.61085311783216 118.7136877882659,195.18660113805063 124.8668910533853,196.08071390916476 120.41439134280753,200.42082846947886 121.46548394430202,206.54916857202122 115.96189163222977,203.65575886514517 110.45829932015751,206.54916857202122 111.509391921652,200.42082846947886 107.05689221107423,196.08071390916476 113.21009547619363,195.18660113805063" fill="purple" />

      <animate attributeName="opacity" values="1;0;1" dur="1.4520485346670302s" repeatCount="indefinite" />
    </g>
  <g>
      <path d="M39.66055125792984,168.42030430527845 c-4.677323347683058,0 -4.677323347683058,9.354646695366116 0,9.354646695366116 c4.677323347683058,0 4.677323347683058,-9.354646695366116 0,-9.354646695366116 z" fill="gold" />

      <animate attributeName="opacity" values="1;0;1" dur="1.3819124645551137s" repeatCount="indefinite" />
    </g>
  <g>
      <circle cx="220.82140987129628" cy="243.05192004351176" r="4.637972767731103" fill="green" />

      <animate attributeName="opacity" values="1;0;1" dur="0.9176892610769385s" repeatCount="indefinite" />
    </g>
  <g>
      <circle cx="313.61391462235684" cy="326.54295897613656" r="2.3554180900114967" fill="silver" />

      <animate attributeName="opacity" values="1;0;1" dur="1.1702923447743867s" repeatCount="indefinite" />
    </g>
  <g>
      <circle cx="351.3322853022672" cy="144.03012041668094" r="2.129911189123414" fill="red" />

      <animate attributeName="opacity" values="1;0;1" dur="1.394174410330244s" repeatCount="indefinite" />
    </g>
  <g>
      <path d="M201.5218216025016,406.43768952749247 c-4.248711716099453,0 -4.248711716099453,8.497423432198906 0,8.497423432198906 c4.248711716099453,0 4.248711716099453,-8.497423432198906 0,-8.497423432198906 z" fill="silver" />

      <animate attributeName="opacity" values="1;0;1" dur="0.8297622117833795s" repeatCount="indefinite" />
    </g>
  <g>
      <circle cx="349.84585067902884" cy="141.53577562202355" r="3.2506101158834007" fill="green" />

      <animate attributeName="opacity" values="1;0;1" dur="1.2970913324291393s" repeatCount="indefinite" />
    </g>
  <g>
      <polygon points="212.24640110111912,227.4136455632338 214.50790482002512,231.9959525977674 219.5647808668675,232.7307596991439 215.9055909839933,236.29758829474991 216.76940853893112,241.334031093109 212.24640110111912,238.95614536270497 207.72339366330715,241.334031093109 208.58721121824493,236.29758829474991 204.92802133537074,232.7307596991439 209.98489738221312,231.9959525977674" fill="green" />

      <animate attributeName="opacity" values="1;0;1" dur="0.6134127174765893s" repeatCount="indefinite" />
    </g>
  <g>
      <path d="M27.29364021360059,179.377554052199 c-3.7684854956458818,0 -3.7684854956458818,7.5369709912917635 0,7.5369709912917635 c3.7684854956458818,0 3.7684854956458818,-7.5369709912917635 0,-7.5369709912917635 z" fill="gold" />

      <animate attributeName="opacity" values="1;0;1" dur="1.1051682730133185s" repeatCount="indefinite" />
    </g>
  <g>
      <circle cx="64.30058903215334" cy="160.2800599255014" r="3.923805453101316" fill="green" />

      <animate attributeName="opacity" values="1;0;1" dur="1.2902478375068975s" repeatCount="indefinite" />
    </g>
  <g>
      <path d="M344.092056189378,136.66183228465383 c-3.966471351221283,0 -3.966471351221283,7.932942702442566 0,7.932942702442566 c3.966471351221283,0 3.966471351221283,-7.932942702442566 0,-7.932942702442566 z" fill="red" />

      <animate attributeName="opacity" values="1;0;1" dur="0.5224241913898069s" repeatCount="indefinite" />
    </g>
</svg>