<svg width="400" height="500" version="1.1"
    xmlns="http://www.w3.org/2000/svg">
      <rect x="190" y="470" width="20" height="30" fill="#8B4513" />
  <rect x="199" y="254.0" width="2" height="216.0" fill="#8B4513" opacity="0">
      
      <animate attributeName="height" from="0" to="216.0" begin="0s" dur="1s" fill="freeze" />
      <animate attributeName="y" from="470" to="254.0" begin="0s" dur="1s" fill="freeze" />
      
    </rect>
  <polygon points="20.0,450.0 380.0,450.0 200,442.8" fill="green" opacity="0">
      
        <animate attributeName="opacity" from="0" to="1" begin="1.0s" dur="0.5s" fill="freeze" />
        
    </polygon>
  <polygon points="31.428571428571416,435.6 368.57142857142856,435.6 200,428.40000000000003" fill="green" opacity="0">
      
        <animate attributeName="opacity" from="0" to="1" begin="1.1s" dur="0.5s" fill="freeze" />
        
    </polygon>
  <polygon points="42.85714285714286,421.2 357.1428571428571,421.2 200,414.0" fill="green" opacity="0">
      
        <animate attributeName="opacity" from="0" to="1" begin="1.2s" dur="0.5s" fill="freeze" />
        
    </polygon>
  <polygon points="54.28571428571428,406.8 345.7142857142857,406.8 200,399.6" fill="green" opacity="0">
      
        <animate attributeName="opacity" from="0" to="1" begin="1.3s" dur="0.5s" fill="freeze" />
        
    </polygon>
  <polygon points="65.71428571428572,392.4 334.2857142857143,392.4 200,385.2" fill="green" opacity="0">
      
        <animate attributeName="opacity" from="0" to="1" begin="1.4s" dur="0.5s" fill="freeze" />
        
    </polygon>
  <polygon points="77.14285714285714,378.0 322.8571428571429,378.0 200,370.8" fill="green" opacity="0">
      
        <animate attributeName="opacity" from="0" to="1" begin="1.5s" dur="0.5s" fill="freeze" />
        
    </polygon>
  <polygon points="88.57142857142857,363.6 311.42857142857144,363.6 200,356.40000000000003" fill="green" opacity="0">
      
        <animate attributeName="opacity" from="0" to="1" begin="1.6s" dur="0.5s" fill="freeze" />
        
    </polygon>
  <polygon points="100.0,349.2 300.0,349.2 200,342.0" fill="green" opacity="0">
      
        <animate attributeName="opacity" from="0" to="1" begin="1.7000000000000002s" dur="0.5s" fill="freeze" />
        
    </polygon>
  <polygon points="111.42857142857143,334.8 288.57142857142856,334.8 200,327.6" fill="green" opacity="0">
      
        <animate attributeName="opacity" from="0" to="1" begin="1.8s" dur="0.5s" fill="freeze" />
        
    </polygon>
</svg>