<svg width="400" height="500" version="1.1"
    xmlns="http://www.w3.org/2000/svg">
      <rect x="190" y="470" width="20" height="30" fill="#8B4513" />
  <rect x="199" y="86" width="2" height="384" fill="#8B4513" >
      
    </rect>
  <polygon points="20.0,450.0 380.0,450.0 200,437.2" fill="green" >
      
    </polygon>
  <polygon points="31.428571428571416,424.4 368.57142857142856,424.4 200,411.59999999999997" fill="green" >
      
    </polygon>
  <polygon points="42.85714285714286,398.8 357.1428571428571,398.8 200,386.0" fill="green" >
      
    </polygon>
  <polygon points="54.28571428571428,373.2 345.7142857142857,373.2 200,360.4" fill="green" >
      
    </polygon>
  <polygon points="65.71428571428572,347.6 334.2857142857143,347.6 200,334.8" fill="green" >
      
    </polygon>
  <polygon points="77.14285714285714,322.0 322.8571428571429,322.0 200,309.2" fill="green" >
      
    </polygon>
  <polygon points="88.57142857142857,296.4 311.42857142857144,296.4 200,283.59999999999997" fill="green" >
      
    </polygon>
  <polygon points="100.0,270.79999999999995 300.0,270.79999999999995 200,257.99999999999994" fill="green" >
      
    </polygon>
  <polygon points="111.42857142857143,245.2 288.57142857142856,245.2 200,232.39999999999998" fill="green" >
      
    </polygon>
  <polygon points="122.85714285714286,219.6 277.1428571428571,219.6 200,206.79999999999998" fill="green" >
      
    </polygon>
  <polygon points="134.28571428571428,194.0 265.7142857142857,194.0 200,181.2" fill="green" >
      
    </polygon>
  <polygon points="145.71428571428572,168.39999999999998 254.28571428571428,168.39999999999998 200,155.59999999999997" fill="green" >
      
    </polygon>
  <polygon points="157.14285714285714,142.79999999999995 242.85714285714286,142.79999999999995 200,129.99999999999994" fill="green" >
      
    </polygon>
  <polygon points="168.57142857142858,117.19999999999999 231.42857142857142,117.19999999999999 200,104.39999999999999" fill="green" >
      
    </polygon>
  <polygon points="180.0,91.59999999999997 220.0,91.59999999999997 200,78.79999999999997" fill="green" >
      
    </polygon>
  <g>
      <polygon points="104.07491322499301,395.16674848533523 105.85543987522935,398.7744895322964 109.83681850090781,399.3530177106258 106.95586586295042,402.1612524785853 107.6359665254657,406.12654360320363 104.07491322499301,404.2543870912306 100.51385992452032,406.12654360320363 101.1939605870356,402.1612524785853 98.31300794907821,399.3530177106258 102.29438657475667,398.7744895322964" fill="purple" />

      <animate attributeName="opacity" values="1;0;1" dur="1.1464417661526864s" repeatCount="indefinite" />
    </g>
  <g>
      <circle cx="128.61970308231878" cy="343.6125010631905" r="3.311178659377363" fill="purple" />

      <animate attributeName="opacity" values="1;0;1" dur="1.3706923685889345s" repeatCount="indefinite" />
    </g>
  <g>
      <path d="M205.63566339638598,435.538192769591 c-4.410324743339796,0 -4.410324743339796,8.820649486679592 0,8.820649486679592 c4.410324743339796,0 4.410324743339796,-8.820649486679592 0,-8.820649486679592 z" fill="red" />

      <animate attributeName="opacity" values="1;0;1" dur="1.345179839463481s" repeatCount="indefinite" />
    </g>
  <g>
      <path d="M277.0711315295881,243.10385949526622 c-4.468033181294709,0 -4.468033181294709,8.936066362589418 0,8.936066362589418 c4.468033181294709,0 4.468033181294709,-8.936066362589418 0,-8.936066362589418 z" fill="gold" />

      <animate attributeName="opacity" values="1;0;1" dur="1.1673180400294783s" repeatCount="indefinite" />
    </g>
  <g>
      <circle cx="78.77468271221579" cy="359.58399521589297" r="4.172707167499745" fill="purple" />

      <animate attributeName="opacity" values="1;0;1" dur="0.6276826920056511s" repeatCount="indefinite" />
    </g>
  <g>
      <path d="M344.14719585227135,141.05704094325014 c-4.7291538401932876,0 -4.7291538401932876,9.458307680386575 0,9.458307680386575 c4.7291538401932876,0 4.7291538401932876,-9.458307680386575 0,-9.458307680386575 z" fill="green" />

      <animate attributeName="opacity" values="1;0;1" dur="0.7732759922263001s" repeatCount="indefinite" />
    </g>
  <g>
      <polygon points="295.4675936212042,324.1831118974055 298.338522671401,330.00024952684436 304.75811518622004,330.9330709217405 300.1128544037121,335.46108108886585 301.2094517215979,341.8547340457836 295.4675936212042,338.83606060103335 289.7257355208105,341.8547340457836 290.82233283869624,335.46108108886585 286.1770720561883,330.9330709217405 292.59666457100735,330.00024952684436" fill="silver" />

      <animate attributeName="opacity" values="1;0;1" dur="0.6293307648867461s" repeatCount="indefinite" />
    </g>
  <g>
      <circle cx="253.06505905657036" cy="372.4207881632091" r="3.144165847472749" fill="purple" />

      <animate attributeName="opacity" values="1;0;1" dur="1.1926115059609181s" repeatCount="indefinite" />
    </g>
  <g>
      <circle cx="305.68003871184027" cy="333.23367597776536" r="1.7378811605199793" fill="gold" />

      <animate attributeName="opacity" values="1;0;1" dur="1.4523571278099778s" repeatCount="indefinite" />
    </g>
  <g>
      <polygon points="329.1806517535339,268.89395584827344 331.6445999880299,273.8864602749827 337.15415573340357,274.6870455868688 333.1674037434687,278.5731683234455 334.1085482225259,284.06046168379424 329.1806517535339,281.46971319274314 324.2527552845419,284.06046168379424 325.19389976359906,278.5731683234455 321.2071477736642,274.6870455868688 326.7167035190379,273.8864602749827" fill="purple" />

      <animate attributeName="opacity" values="1;0;1" dur="1.452155280522787s" repeatCount="indefinite" />
    </g>
  <g>
      <polygon points="259.49335314616485,254.4984812322244 261.41942186511557,258.4011227207436 265.7262424500253,259.0269403838288 262.6097977980951,262.0647231327243 263.3454905840663,266.3541412077901 259.49335314616485,264.32895270852646 255.64121570826342,266.3541412077901 256.3769084942346,262.0647231327243 253.26046384230438,259.0269403838288 257.56728442721413,258.4011227207436" fill="green" />

      <animate attributeName="opacity" values="1;0;1" dur="1.4720224183876063s" repeatCount="indefinite" />
    </g>
  <g>
      <circle cx="298.9931502449617" cy="233.36224447412314" r="4.218496809163059" fill="red" />

      <animate attributeName="opacity" values="1;0;1" dur="1.067973121290704s" repeatCount="indefinite" />
    </g>
  <g>
      <circle cx="367.4043934830684" cy="310.52148123788675" r="2.311618942261123" fill="red" />

      <animate attributeName="opacity" values="1;0;1" dur="1.1736735329375452s" repeatCount="indefinite" />
    </g>
  <g>
      <circle cx="188.9691769740758" cy="338.5393659875041" r="2.191739753314756" fill="blue" />

      <animate attributeName="opacity" values="1;0;1" dur="1.1029589688941688s" repeatCount="indefinite" />
    </g>
  <g>
      <circle cx="109.65600083626848" cy="144.16996380818276" r="2.031255878700369" fill="purple" />

      <animate attributeName="opacity" values="1;0;1" dur="1.0309113007717796s" repeatCount="indefinite" />
    </g>
  <g>
      <circle cx="200.3459102767972" cy="327.12512533268705" r="2.221211685274611" fill="gold" />

      <animate attributeName="opacity" values="1;0;1" dur="1.3897491464575031s" repeatCount="indefinite" />
    </g>
  <g>
      <circle cx="304.2771009111786" cy="443.9704722348139" r="2.542485582439912" fill="blue" />

      <animate attributeName="opacity" values="1;0;1" dur="1.181835701307092s" repeatCount="indefinite" />
    </g>
  <g>
      <circle cx="84.14510896925934" cy="123.12190225150557" r="2.935258848462303" fill="red" />

      <animate attributeName="opacity" values="1;0;1" dur="0.7785470072482249s" repeatCount="indefinite" />
    </g>
  <g>
      <circle cx="89.41845116590521" cy="346.27965241286154" r="2.7361813557147396" fill="red" />

      <animate attributeName="opacity" values="1;0;1" dur="1.269429765597355s" repeatCount="indefinite" />
    </g>
  <g>
      <polygon points="363.45997911222514,267.77100614251026 365.3325189252243,271.56518622093216 369.5196452376651,272.1736112881558 366.4898121749451,275.126968603282 367.2050587382234,279.29717605285555 363.45997911222514,277.3282711761048 359.7148994862269,279.29717605285555 360.4301460495052,275.126968603282 357.4003129867852,272.1736112881558 361.587439299226,271.56518622093216" fill="gold" />

      <animate attributeName="opacity" values="1;0;1" dur="1.429832951894037s" repeatCount="indefinite" />
    </g>
  <g>
      <circle cx="137.2506513897974" cy="438.94915174374637" r="2.5223882774823556" fill="gold" />

      <animate attributeName="opacity" values="1;0;1" dur="0.5629661732405703s" repeatCount="indefinite" />
    </g>
  <g>
      <circle cx="165.97647072386872" cy="305.1535929341405" r="4.711047878989018" fill="red" />

      <animate attributeName="opacity" values="1;0;1" dur="0.9868341574256146s" repeatCount="indefinite" />
    </g>
  <g>
      <circle cx="312.96646440833763" cy="394.45782796194635" r="2.938803982564441" fill="blue" />

      <animate attributeName="opacity" values="1;0;1" dur="0.8142724039887058s" repeatCount="indefinite" />
    </g>
  <g>
      <path d="M95.12337802415996,266.3640302955915 c-4.226164656812072,0 -4.226164656812072,8.452329313624144 0,8.452329313624144 c4.226164656812072,0 4.226164656812072,-8.452329313624144 0,-8.452329313624144 z" fill="green" />

      <animate attributeName="opacity" values="1;0;1" dur="0.5816486364133276s" repeatCount="indefinite" />
    </g>
  <g>
      <polygon points="232.15245078264581,118.49906492727439 233.7260868743634,121.68759991511943 237.24484414729105,122.19890527602146 234.69864746496842,124.68083363372995 235.299722966081,128.1853727132425 232.15245078264581,126.53075380810348 229.00517859921064,128.1853727132425 229.6062541003232,124.68083363372995 227.06005741800058,122.19890527602146 230.57881469092823,121.68759991511943" fill="silver" />

      <animate attributeName="opacity" values="1;0;1" dur="0.8304385617247552s" repeatCount="indefinite" />
    </g>
</svg>