<svg width="400" height="500" version="1.1"
    xmlns="http://www.w3.org/2000/svg">
      <rect x="190" y="470" width="20" height="30" fill="#8B4513" />
  <rect x="199" y="86" width="2" height="384" fill="#8B4513" >
      
    </rect>
  <polygon points="20.0,450.0 380.0,450.0 200,437.2" fill="green" >
      
    </polygon>
  <polygon points="31.428571428571416,424.4 368.57142857142856,424.4 200,411.59999999999997" fill="green" >
      
    </polygon>
  <polygon points="42.85714285714286,398.8 357.1428571428571,398.8 200,386.0" fill="green" >
      
    </polygon>
  <polygon points="54.28571428571428,373.2 345.7142857142857,373.2 200,360.4" fill="green" >
      
    </polygon>
  <polygon points="65.71428571428572,347.6 334.2857142857143,347.6 200,334.8" fill="green" >
      
    </polygon>
  <polygon points="77.14285714285714,322.0 322.8571428571429,322.0 200,309.2" fill="green" >
      
    </polygon>
  <polygon points="88.57142857142857,296.4 311.42857142857144,296.4 200,283.59999999999997" fill="green" >
      
    </polygon>
  <polygon points="100.0,270.79999999999995 300.0,270.79999999999995 200,257.99999999999994" fill="green" >
      
    </polygon>
  <polygon points="111.42857142857143,245.2 288.57142857142856,245.2 200,232.39999999999998" fill="green" >
      
    </polygon>
  <polygon points="122.85714285714286,219.6 277.1428571428571,219.6 200,206.79999999999998" fill="green" >
      
    </polygon>
  <polygon points="134.28571428571428,194.0 265.7142857142857,194.0 200,181.2" fill="green" >
      
    </polygon>
  <polygon points="145.71428571428572,168.39999999999998 254.28571428571428,168.39999999999998 200,155.59999999999997" fill="green" >
      
    </polygon>
  <polygon points="157.14285714285714,142.79999999999995 242.85714285714286,142.79999999999995 200,129.99999999999994" fill="green" >
      
    </polygon>
  <polygon points="168.57142857142858,117.19999999999999 231.42857142857142,117.19999999999999 200,104.39999999999999" fill="green" >
      
    </polygon>
  <polygon points="180.0,91.59999999999997 220.0,91.59999999999997 200,78.79999999999997" fill="green" >
      
    </polygon>
  <g>
      <polygon points="310.9569758824613,207.72528607285204 313.16630238972755,212.20187052911157 318.1065066444671,212.91972422673183 314.5317412634642,216.40425927182997 315.3756288969938,221.3245017121686 310.9569758824613,219.00147834876987 306.53832286792874,221.3245017121686 307.38221050145836,216.40425927182997 303.80744512045544,212.91972422673183 308.747649375195,212.20187052911157" fill="purple" />

      <animate attributeName="opacity" values="1;0;1" dur="1.3026917390355235s" repeatCount="indefinite" />
    </g>
  <g>
      <path d="M135.47237310280386,368.28842870884887 c-4.333629287292428,0 -4.333629287292428,8.667258574584856 0,8.667258574584856 c4.333629287292428,0 4.333629287292428,-8.667258574584856 0,-8.667258574584856 z" fill="green" />

      <animate attributeName="opacity" values="1;0;1" dur="1.2433118644327912s" repeatCount="indefinite" />
    </g>
  <g>
      <circle cx="221.40945027234562" cy="393.5587057760633" r="2.6066273803440927" fill="gold" />

      <animate attributeName="opacity" values="1;0;1" dur="1.3985996896020738s" repeatCount="indefinite" />
    </g>
  <g>
      <polygon points="334.36769803441854,188.43315583085825 336.74642749678594,193.25298816521826 342.06542827472106,194.02588421955096 338.21656315456977,197.77760047659388 339.1251569591534,203.07510884230217 334.36769803441854,200.57396467094023 329.6102391096837,203.07510884230217 330.5188329142673,197.77760047659388 326.669967794116,194.02588421955096 331.98896857205114,193.25298816521826" fill="blue" />

      <animate attributeName="opacity" values="1;0;1" dur="1.2714296723136718s" repeatCount="indefinite" />
    </g>
  <g>
      <polygon points="32.22178613394311,137.99524592469473 34.33727299554184,142.28169049090423 39.06764542358427,142.9690538393596 35.64471577876369,146.30558562062473 36.452759857140556,151.0168440988006 32.22178613394311,148.79248957795718 27.99081241074567,151.0168440988006 28.798856489122535,146.30558562062473 25.375926844301954,142.9690538393596 30.106299272344387,142.28169049090423" fill="green" />

      <animate attributeName="opacity" values="1;0;1" dur="0.6065901426579721s" repeatCount="indefinite" />
    </g>
  <g>
      <circle cx="144.19020464013846" cy="391.1021635381225" r="1.783014662408285" fill="red" />

      <animate attributeName="opacity" values="1;0;1" dur="1.3004815557106748s" repeatCount="indefinite" />
    </g>
  <g>
      <circle cx="340.6886610675416" cy="432.7484941489258" r="3.2769768720999424" fill="silver" />

      <animate attributeName="opacity" values="1;0;1" dur="0.6340426303373181s" repeatCount="indefinite" />
    </g>
  <g>
      <circle cx="128.9419722926976" cy="301.6446335573964" r="2.053643208169896" fill="purple" />

      <animate attributeName="opacity" values="1;0;1" dur="1.1205450357999958s" repeatCount="indefinite" />
    </g>
  <g>
      <path d="M368.1709799950256,111.83961865209542 c-4.533871122731197,0 -4.533871122731197,9.067742245462394 0,9.067742245462394 c4.533871122731197,0 4.533871122731197,-9.067742245462394 0,-9.067742245462394 z" fill="red" />

      <animate attributeName="opacity" values="1;0;1" dur="0.862429370243s" repeatCount="indefinite" />
    </g>
  <g>
      <circle cx="115.99800595322887" cy="176.96693657187456" r="2.662495762864992" fill="purple" />

      <animate attributeName="opacity" values="1;0;1" dur="0.8874774561232242s" repeatCount="indefinite" />
    </g>
  <g>
      <circle cx="70.81466870553099" cy="307.54202335552907" r="2.208644946893363" fill="gold" />

      <animate attributeName="opacity" values="1;0;1" dur="1.1055596910670231s" repeatCount="indefinite" />
    </g>
  <g>
      <polygon points="297.6761907245712,371.13280840428325 300.33061025377964,376.51124982784154 306.26607276189264,377.3737230149466 301.9711317432319,381.56025580831107 302.985029782988,387.47173497588574 297.6761907245712,384.68071311364275 292.3673516661544,387.47173497588574 293.3812497059105,381.56025580831107 289.08630868724975,377.3737230149466 295.02177119536276,376.51124982784154" fill="purple" />

      <animate attributeName="opacity" values="1;0;1" dur="0.6413097210848253s" repeatCount="indefinite" />
    </g>
  <g>
      <path d="M263.81852998834324,131.16914006089536 c-3.5712855527273586,0 -3.5712855527273586,7.142571105454717 0,7.142571105454717 c3.5712855527273586,0 3.5712855527273586,-7.142571105454717 0,-7.142571105454717 z" fill="gold" />

      <animate attributeName="opacity" values="1;0;1" dur="1.1733525600356693s" repeatCount="indefinite" />
    </g>
  <g>
      <path d="M275.2864155136373,258.4546747281535 c-2.7468856616203468,0 -2.7468856616203468,5.4937713232406935 0,5.4937713232406935 c2.7468856616203468,0 2.7468856616203468,-5.4937713232406935 0,-5.4937713232406935 z" fill="red" />

      <animate attributeName="opacity" values="1;0;1" dur="1.1630172187725307s" repeatCount="indefinite" />
    </g>
  <g>
      <path d="M116.59837311070635,194.00411842834149 c-4.1469236877365425,0 -4.1469236877365425,8.293847375473085 0,8.293847375473085 c4.1469236877365425,0 4.1469236877365425,-8.293847375473085 0,-8.293847375473085 z" fill="purple" />

      <animate attributeName="opacity" values="1;0;1" dur="0.9886458007590921s" repeatCount="indefinite" />
    </g>
  <g>
      <polygon points="321.48714563242794,249.49813304949657 323.95636563777487,254.5013192506609 329.47770942113306,255.30361746473045 325.4824275267805,259.19805480316404 326.42558564312185,264.6970885697367 321.48714563242794,262.100797010781 316.54870562173403,264.6970885697367 317.4918637380754,259.19805480316404 313.4965818437228,255.30361746473045 319.017925627081,254.5013192506609" fill="blue" />

      <animate attributeName="opacity" values="1;0;1" dur="1.4703719751192077s" repeatCount="indefinite" />
    </g>
  <g>
      <polygon points="204.37056692041855,193.42325879830472 206.6628329572046,198.0678970969622 211.78849563797226,198.81269948131975 208.0795312791954,202.4280461996971 208.95509899399065,207.5329976867895 204.37056692041855,205.1227665412046 199.78603484684646,207.5329976867895 200.6616025616417,202.4280461996971 196.95263820286485,198.81269948131975 202.0783008836325,198.0678970969622" fill="red" />

      <animate attributeName="opacity" values="1;0;1" dur="0.7869342925430449s" repeatCount="indefinite" />
    </g>
  <g>
      <circle cx="171.35234612301207" cy="373.56719954279447" r="1.8012137624872582" fill="blue" />

      <animate attributeName="opacity" values="1;0;1" dur="0.6015837978269757s" repeatCount="indefinite" />
    </g>
  <g>
      <circle cx="198.50963346770666" cy="116.78334277397668" r="3.5773482510492536" fill="purple" />

      <animate attributeName="opacity" values="1;0;1" dur="0.5747514089050673s" repeatCount="indefinite" />
    </g>
  <g>
      <circle cx="205.93961027044656" cy="154.24647906810173" r="3.8332641995661962" fill="green" />

      <animate attributeName="opacity" values="1;0;1" dur="0.9422542530475737s" repeatCount="indefinite" />
    </g>
  <g>
      <circle cx="156.61901070258511" cy="243.09919296056006" r="2.840321993313271" fill="red" />

      <animate attributeName="opacity" values="1;0;1" dur="0.5617352801977801s" repeatCount="indefinite" />
    </g>
  <g>
      <path d="M108.52089226832976,340.019682396329 c-3.0509171087030307,0 -3.0509171087030307,6.101834217406061 0,6.101834217406061 c3.0509171087030307,0 3.0509171087030307,-6.101834217406061 0,-6.101834217406061 z" fill="red" />

      <animate attributeName="opacity" values="1;0;1" dur="0.7695738747841298s" repeatCount="indefinite" />
    </g>
  <g>
      <path d="M72.44587498574256,283.8478757666876 c-2.524150453982294,0 -2.524150453982294,5.048300907964588 0,5.048300907964588 c2.524150453982294,0 2.524150453982294,-5.048300907964588 0,-5.048300907964588 z" fill="blue" />

      <animate attributeName="opacity" values="1;0;1" dur="0.6097362289097046s" repeatCount="indefinite" />
    </g>
  <g>
      <polygon points="99.60337872685955,381.2254455995478 101.88333254987054,385.84513662824486 106.98146428368366,386.5859385318426 103.2924215052716,390.18186650869814 104.16328637288154,395.25939829274927 99.60337872685955,392.86211297484556 95.04347108083755,395.25939829274927 95.91433594844749,390.18186650869814 92.22529317003543,386.5859385318426 97.32342490384855,385.84513662824486" fill="silver" />

      <animate attributeName="opacity" values="1;0;1" dur="1.2610486381941324s" repeatCount="indefinite" />
    </g>
  <g>
      <circle cx="90.9377925509413" cy="147.09894523266314" r="2.7049862373672577" fill="gold" />

      <animate attributeName="opacity" values="1;0;1" dur="1.285238025208578s" repeatCount="indefinite" />
    </g>
  <g>
      <circle cx="26.11167418542919" cy="399.40205318436546" r="2.702692206919069" fill="purple" />

      <animate attributeName="opacity" values="1;0;1" dur="1.2526191212730362s" repeatCount="indefinite" />
    </g>
  <g>
      <path d="M24.05681598971207,213.37438652286386 c-4.595652370352134,0 -4.595652370352134,9.191304740704268 0,9.191304740704268 c4.595652370352134,0 4.595652370352134,-9.191304740704268 0,-9.191304740704268 z" fill="blue" />

      <animate attributeName="opacity" values="1;0;1" dur="1.2086197130409944s" repeatCount="indefinite" />
    </g>
  <g>
      <circle cx="210.49864304724048" cy="391.6290740261616" r="2.88078546236223" fill="blue" />

      <animate attributeName="opacity" values="1;0;1" dur="1.2515783685516118s" repeatCount="indefinite" />
    </g>
  <g>
      <polygon points="131.11760529362704,275.40682343527936 133.60768794106065,280.4522819664839 139.17568201031483,281.26135886388283 135.14664365197095,285.1887006223943 136.09777058849426,290.73419617570374 131.11760529362704,288.1159683366961 126.13743999875982,290.73419617570374 127.08856693528314,285.1887006223943 123.05952857693924,281.26135886388283 128.62752264619343,280.4522819664839" fill="gold" />

      <animate attributeName="opacity" values="1;0;1" dur="1.2080859563288024s" repeatCount="indefinite" />
    </g>
  <g>
      <path d="M191.67773330033995,152.1545200520652 c-4.001742814242128,0 -4.001742814242128,8.003485628484256 0,8.003485628484256 c4.001742814242128,0 4.001742814242128,-8.003485628484256 0,-8.003485628484256 z" fill="purple" />

      <animate attributeName="opacity" values="1;0;1" dur="0.9734470740298613s" repeatCount="indefinite" />
    </g>
  <g>
      <circle cx="30.283878838344997" cy="328.7073080920078" r="2.1759127495204535" fill="red" />

      <animate attributeName="opacity" values="1;0;1" dur="1.3385388083028222s" repeatCount="indefinite" />
    </g>
  <g>
      <path d="M257.2240620202392,152.2260526911785 c-3.4430418383815953,0 -3.4430418383815953,6.8860836767631906 0,6.8860836767631906 c3.4430418383815953,0 3.4430418383815953,-6.8860836767631906 0,-6.8860836767631906 z" fill="red" />

      <animate attributeName="opacity" values="1;0;1" dur="0.5720103123969419s" repeatCount="indefinite" />
    </g>
  <g>
      <circle cx="323.020016254515" cy="325.0174247529791" r="4.2815370387349745" fill="silver" />

      <animate attributeName="opacity" values="1;0;1" dur="1.1835029846666543s" repeatCount="indefinite" />
    </g>
  <g>
      <circle cx="270.85500691700645" cy="228.46629826370656" r="3.3645322112501947" fill="blue" />

      <animate attributeName="opacity" values="1;0;1" dur="1.0268243012527196s" repeatCount="indefinite" />
    </g>
  <g>
      <circle cx="59.44069318024479" cy="438.54745311332596" r="2.7427730819409906" fill="purple" />

      <animate attributeName="opacity" values="1;0;1" dur="1.025034251085942s" repeatCount="indefinite" />
    </g>
</svg>