<svg width="400" height="500" version="1.1"
    xmlns="http://www.w3.org/2000/svg">
      <rect x="190" y="470" width="20" height="30" fill="#8B4513" />
  <rect x="199" y="86" width="2" height="384" fill="#8B4513" >
      
    </rect>
  <polygon points="20.0,450.0 380.0,450.0 200,437.2" fill="green" >
      
    </polygon>
  <polygon points="31.428571428571416,424.4 368.57142857142856,424.4 200,411.59999999999997" fill="green" >
      
    </polygon>
  <polygon points="42.85714285714286,398.8 357.1428571428571,398.8 200,386.0" fill="green" >
      
    </polygon>
  <polygon points="54.28571428571428,373.2 345.7142857142857,373.2 200,360.4" fill="green" >
      
    </polygon>
  <polygon points="65.71428571428572,347.6 334.2857142857143,347.6 200,334.8" fill="green" >
      
    </polygon>
  <polygon points="77.14285714285714,322.0 322.8571428571429,322.0 200,309.2" fill="green" >
      
    </polygon>
  <polygon points="88.57142857142857,296.4 311.42857142857144,296.4 200,283.59999999999997" fill="green" >
      
    </polygon>
  <polygon points="100.0,270.79999999999995 300.0,270.79999999999995 200,257.99999999999994" fill="green" >
      
    </polygon>
  <polygon points="111.42857142857143,245.2 288.57142857142856,245.2 200,232.39999999999998" fill="green" >
      
    </polygon>
  <polygon points="122.85714285714286,219.6 277.1428571428571,219.6 200,206.79999999999998" fill="green" >
      
    </polygon>
  <polygon points="134.28571428571428,194.0 265.7142857142857,194.0 200,181.2" fill="green" >
      
    </polygon>
  <polygon points="145.71428571428572,168.39999999999998 254.28571428571428,168.39999999999998 200,155.59999999999997" fill="green" >
      
    </polygon>
  <polygon points="157.14285714285714,142.79999999999995 242.85714285714286,142.79999999999995 200,129.99999999999994" fill="green" >
      
    </polygon>
  <polygon points="168.57142857142858,117.19999999999999 231.42857142857142,117.19999999999999 200,104.39999999999999" fill="green" >
      
    </polygon>
  <polygon points="180.0,91.59999999999997 220.0,91.59999999999997 200,78.79999999999997" fill="green" >
      
    </polygon>
  <g>
      <circle cx="91.0485635641331" cy="376.9286687097061" r="3.487474282235009" fill="purple" />

      <animate attributeName="opacity" values="1;0;1" dur="0.728467350009284s" repeatCount="indefinite" />
    </g>
  <g>
      <polygon points="105.19832813572471,216.12299819507325 108.06097463822421,221.92335354984226 114.46204681336512,222.85348378185657 109.83018747454491,227.3684307699456 110.92362114072371,233.7436382220633 105.19832813572471,230.73367356333728 99.4730351307257,233.7436382220633 100.5664687969045,227.3684307699456 95.9346094580843,222.85348378185657 102.3356816332252,221.92335354984226" fill="gold" />

      <animate attributeName="opacity" values="1;0;1" dur="0.5687357703722536s" repeatCount="indefinite" />
    </g>
  <g>
      <path d="M87.17391262957801,163.5529333940675 c-3.2041677470529786,0 -3.2041677470529786,6.408335494105957 0,6.408335494105957 c3.2041677470529786,0 3.2041677470529786,-6.408335494105957 0,-6.408335494105957 z" fill="silver" />

      <animate attributeName="opacity" values="1;0;1" dur="0.984198973020076s" repeatCount="indefinite" />
    </g>
  <g>
      <polygon points="328.0966943288294,344.02894322814484 330.03003663119625,347.9463226064032 334.3531214430645,348.57450360000246 331.22490788594695,351.6237581961933 331.9633789335631,355.9293747795827 328.0966943288294,353.8965383821221 324.23000972409574,355.9293747795827 324.9684807717119,351.6237581961933 321.84026721459435,348.57450360000246 326.1633520264626,347.9463226064032" fill="gold" />

      <animate attributeName="opacity" values="1;0;1" dur="0.6973570781630678s" repeatCount="indefinite" />
    </g>
  <g>
      <circle cx="115.81885295994537" cy="197.45327294321316" r="3.087172034223499" fill="red" />

      <animate attributeName="opacity" values="1;0;1" dur="0.8190409890361289s" repeatCount="indefinite" />
    </g>
  <g>
      <path d="M269.85786448419117,140.11898929384142 c-4.918423429024596,0 -4.918423429024596,9.836846858049192 0,9.836846858049192 c4.918423429024596,0 4.918423429024596,-9.836846858049192 0,-9.836846858049192 z" fill="red" />

      <animate attributeName="opacity" values="1;0;1" dur="1.446019264422603s" repeatCount="indefinite" />
    </g>
  <g>
      <polygon points="83.2268872985602,361.4262127690195 85.21830783528762,365.461271503557 89.67125952719924,366.10832325942243 86.44907341287973,369.2491784598342 87.20972837201504,373.68413717197683 83.2268872985602,371.5902337050357 79.24404622510536,373.68413717197683 80.00470118424067,369.2491784598342 76.78251506992116,366.10832325942243 81.23546676183278,365.461271503557" fill="green" />

      <animate attributeName="opacity" values="1;0;1" dur="1.182018623686325s" repeatCount="indefinite" />
    </g>
  <g>
      <path d="M359.81440029052953,354.5930895966718 c-2.935007270917483,0 -2.935007270917483,5.870014541834966 0,5.870014541834966 c2.935007270917483,0 2.935007270917483,-5.870014541834966 0,-5.870014541834966 z" fill="blue" />

      <animate attributeName="opacity" values="1;0;1" dur="1.1996913988544238s" repeatCount="indefinite" />
    </g>
  <g>
      <circle cx="252.78655249273174" cy="342.1751699011071" r="2.8560578873773133" fill="blue" />

      <animate attributeName="opacity" values="1;0;1" dur="0.5500022468511268s" repeatCount="indefinite" />
    </g>
  <g>
      <circle cx="97.56420895641611" cy="122.99480493997372" r="4.4037511712322015" fill="silver" />

      <animate attributeName="opacity" values="1;0;1" dur="1.0765145137404408s" repeatCount="indefinite" />
    </g>
  <g>
      <circle cx="180.18728065621585" cy="318.07923037175374" r="2.920511348444677" fill="silver" />

      <animate attributeName="opacity" values="1;0;1" dur="0.8809560496165224s" repeatCount="indefinite" />
    </g>
  <g>
      <circle cx="239.61039954200325" cy="203.59375615591514" r="1.7450608574616515" fill="silver" />

      <animate attributeName="opacity" values="1;0;1" dur="0.8447569159228911s" repeatCount="indefinite" />
    </g>
  <g>
      <circle cx="233.66979642306532" cy="253.22153361699134" r="3.896656629725503" fill="blue" />

      <animate attributeName="opacity" values="1;0;1" dur="1.0540753547163388s" repeatCount="indefinite" />
    </g>
  <g>
      <path d="M141.89914562902823,128.97592077181184 c-3.271251868179438,0 -3.271251868179438,6.542503736358876 0,6.542503736358876 c3.271251868179438,0 3.271251868179438,-6.542503736358876 0,-6.542503736358876 z" fill="gold" />

      <animate attributeName="opacity" values="1;0;1" dur="0.7358614310943465s" repeatCount="indefinite" />
    </g>
  <g>
      <path d="M336.55218014248595,157.4644455465239 c-3.686715993647872,0 -3.686715993647872,7.373431987295744 0,7.373431987295744 c3.686715993647872,0 3.686715993647872,-7.373431987295744 0,-7.373431987295744 z" fill="gold" />

      <animate attributeName="opacity" values="1;0;1" dur="1.356047232854866s" repeatCount="indefinite" />
    </g>
  <g>
      <path d="M235.85185167145025,112.17599946057688 c-4.553268942402836,0 -4.553268942402836,9.106537884805672 0,9.106537884805672 c4.553268942402836,0 4.553268942402836,-9.106537884805672 0,-9.106537884805672 z" fill="gold" />

      <animate attributeName="opacity" values="1;0;1" dur="0.629465894075666s" repeatCount="indefinite" />
    </g>
  <g>
      <circle cx="80.5812470630595" cy="375.9792961785737" r="4.270956492484846" fill="green" />

      <animate attributeName="opacity" values="1;0;1" dur="0.8383232032182909s" repeatCount="indefinite" />
    </g>
  <g>
      <path d="M85.33802126187332,347.9052434586074 c-4.469990526823993,0 -4.469990526823993,8.939981053647985 0,8.939981053647985 c4.469990526823993,0 4.469990526823993,-8.939981053647985 0,-8.939981053647985 z" fill="silver" />

      <animate attributeName="opacity" values="1;0;1" dur="1.281474881466706s" repeatCount="indefinite" />
    </g>
  <g>
      <circle cx="102.54153290408368" cy="210.0515772007676" r="3.035206402765823" fill="green" />

      <animate attributeName="opacity" values="1;0;1" dur="0.7064529336897067s" repeatCount="indefinite" />
    </g>
  <g>
      <path d="M319.81055290551905,170.82592531385558 c-4.241362987121656,0 -4.241362987121656,8.482725974243312 0,8.482725974243312 c4.241362987121656,0 4.241362987121656,-8.482725974243312 0,-8.482725974243312 z" fill="red" />

      <animate attributeName="opacity" values="1;0;1" dur="1.0699109039751324s" repeatCount="indefinite" />
    </g>
  <g>
      <circle cx="278.1354460420397" cy="429.1417298548658" r="3.4296172160522946" fill="purple" />

      <animate attributeName="opacity" values="1;0;1" dur="0.5845206610019392s" repeatCount="indefinite" />
    </g>
  <g>
      <circle cx="200.14646511821954" cy="213.5108200084088" r="3.0703760062736443" fill="green" />

      <animate attributeName="opacity" values="1;0;1" dur="0.5002665872557436s" repeatCount="indefinite" />
    </g>
  <g>
      <circle cx="61.73448500476682" cy="306.8958498243353" r="2.7762286660992412" fill="red" />

      <animate attributeName="opacity" values="1;0;1" dur="0.7887617887662587s" repeatCount="indefinite" />
    </g>
  <g>
      <circle cx="122.43193339957617" cy="336.6061773018596" r="2.7712228526776617" fill="purple" />

      <animate attributeName="opacity" values="1;0;1" dur="0.8197522091714755s" repeatCount="indefinite" />
    </g>
  <g>
      <path d="M303.22862819263713,335.6378845721363 c-2.7364441738972602,0 -2.7364441738972602,5.4728883477945205 0,5.4728883477945205 c2.7364441738972602,0 2.7364441738972602,-5.4728883477945205 0,-5.4728883477945205 z" fill="silver" />

      <animate attributeName="opacity" values="1;0;1" dur="0.8460125774774847s" repeatCount="indefinite" />
    </g>
  <g>
      <polygon points="357.86501421698955,208.02523371664552 360.4408952482623,213.24453876180047 366.2007403361404,214.0814932440137 362.032877276565,218.1441556417865 363.01677627953507,223.8807270039858 357.86501421698955,221.1722854054706 352.71325215444404,223.8807270039858 353.6971511574141,218.1441556417865 349.5292880978387,214.0814932440137 355.2891331857168,213.24453876180047" fill="red" />

      <animate attributeName="opacity" values="1;0;1" dur="0.7242718713181233s" repeatCount="indefinite" />
    </g>
  <g>
      <circle cx="309.94616506610106" cy="194.83459938255584" r="4.199627890422711" fill="red" />

      <animate attributeName="opacity" values="1;0;1" dur="0.7456652683047277s" repeatCount="indefinite" />
    </g>
  <g>
      <polygon points="131.63480104819195,254.5474330285694 133.3323148298539,257.98697163197716 137.12807103839282,258.5385272942659 134.38143604329238,261.21583471907803 135.02982861151588,264.99625346846767 131.63480104819195,263.21138185192626 128.239773484868,264.99625346846767 128.8881660530915,261.21583471907803 126.14153105799109,258.5385272942659 129.93728726652998,257.98697163197716" fill="green" />

      <animate attributeName="opacity" values="1;0;1" dur="1.4778700533603335s" repeatCount="indefinite" />
    </g>
  <g>
      <polygon points="347.18944592993273,347.25266493686604 349.4484988281543,351.8300060662947 354.49989467334564,352.5640168477589 350.8446703016392,356.12698002531283 351.70755172637587,361.1579647657952 347.18944592993273,358.7826559807593 342.6713401334896,361.1579647657952 343.53422155822625,356.12698002531283 339.8789971865198,352.5640168477589 344.93039303171116,351.8300060662947" fill="purple" />

      <animate attributeName="opacity" values="1;0;1" dur="1.0033545761233493s" repeatCount="indefinite" />
    </g>
  <g>
      <circle cx="190.08416907192094" cy="330.38715770075737" r="3.9848957677739074" fill="gold" />

      <animate attributeName="opacity" values="1;0;1" dur="1.0289559328530706s" repeatCount="indefinite" />
    </g>
</svg>